<?xml version="1.0" encoding="utf-8"?>
<!-- Generator: Adobe Illustrator 16.0.0, SVG Export Plug-In . SVG Version: 6.00 Build 0)  -->
<!DOCTYPE svg PUBLIC "-//W3C//DTD SVG 1.1//EN" "http://www.w3.org/Graphics/SVG/1.1/DTD/svg11.dtd">
<svg version="1.1" id="Layer_1" xmlns="http://www.w3.org/2000/svg" xmlns:xlink="http://www.w3.org/1999/xlink" x="0px" y="0px"
	 width="512px" height="512px" viewBox="0 0 512 512" enable-background="new 0 0 512 512" xml:space="preserve">
<path d="M256,0C114.615,0,0,114.615,0,256s114.615,256,256,256s256-114.615,256-256S397.385,0,256,0z"/>
<path fill="#F7F9F8" d="M368.882,87.008H143.119c-30.861,0-56.111,25.25-56.111,56.11v225.762c0,30.86,25.25,56.111,56.111,56.111
	h225.763c30.86,0,56.11-25.251,56.11-56.111V143.119C424.992,112.258,399.742,87.008,368.882,87.008z M195.203,234.876h121.595
	c2.306,6.62,3.564,13.728,3.564,21.124c0,35.489-28.872,64.361-64.362,64.361c-35.49,0-64.362-28.872-64.362-64.361
	C191.638,248.604,192.896,241.496,195.203,234.876z M382.744,234.892v84.479v42.248c0,11.62-9.506,21.125-21.124,21.125H150.38
	c-11.619,0-21.124-9.505-21.124-21.125v-42.248v-84.479v-0.016h33.042c-1.533,6.8-2.347,13.868-2.347,21.124
	c0,52.96,43.087,96.049,96.048,96.049c52.961,0,96.049-43.089,96.049-96.049c0-7.256-0.813-14.324-2.346-21.124h33.041V234.892z
	 M382.744,160.942c0,5.809-4.754,10.562-10.562,10.562h-21.124c-5.809,0-10.562-4.753-10.562-10.562v-21.124
	c0-5.809,4.754-10.562,10.562-10.562h21.124c5.808,0,10.562,4.753,10.562,10.562V160.942z"/>
</svg>
