<?xml version="1.0" encoding="utf-8"?>
<!-- Generator: Adobe Illustrator 16.0.0, SVG Export Plug-In . SVG Version: 6.00 Build 0)  -->
<!DOCTYPE svg PUBLIC "-//W3C//DTD SVG 1.1//EN" "http://www.w3.org/Graphics/SVG/1.1/DTD/svg11.dtd">
<svg version="1.1" id="Layer_1" xmlns="http://www.w3.org/2000/svg" xmlns:xlink="http://www.w3.org/1999/xlink" x="0px" y="0px"
	 width="512px" height="512px" viewBox="0 0 512 512" enable-background="new 0 0 512 512" xml:space="preserve">
<path fill="#DDDDDD" d="M201.373,73.373l-160,160c-12.497,12.496-12.497,32.758,0,45.254l160,160
	c12.497,12.496,32.758,12.496,45.255,0c12.498-12.496,12.498-32.758,0-45.254L141.254,288H448c17.673,0,32-14.326,32-32
	c0-17.673-14.327-32-32-32H141.254l105.373-105.373C252.875,112.379,256,104.189,256,96s-3.124-16.379-9.372-22.627
	C234.13,60.876,213.87,60.876,201.373,73.373z"/>
</svg>
