<?xml version="1.0" encoding="utf-8"?>
<!-- Generator: Adobe Illustrator 16.0.0, SVG Export Plug-In . SVG Version: 6.00 Build 0)  -->
<!DOCTYPE svg PUBLIC "-//W3C//DTD SVG 1.1//EN" "http://www.w3.org/Graphics/SVG/1.1/DTD/svg11.dtd">
<svg version="1.1" id="Layer_1" xmlns="http://www.w3.org/2000/svg" xmlns:xlink="http://www.w3.org/1999/xlink" x="0px" y="0px"
	 width="512px" height="512px" viewBox="0 0 512 512" enable-background="new 0 0 512 512" xml:space="preserve">
<path fill="#00BF8F" d="M256,0C114.615,0,0,114.615,0,256s114.615,256,256,256s256-114.615,256-256S397.385,0,256,0z"/>
<path fill="#F7F8F9" d="M225.487,450.803c13.672,8.194,25.429,7.801,37.924,0.767c19.625-11.154,80.088-80.65,112.754-149.611
	c15.119-0.042,34.238-2.676,52.898-7.968v-44.297c-13.429,4.061-26.343,6.183-37.308,6.014
	c-58.159-0.916-84.279-38.279-84.279-98.016c0-29.291,14.227-47.165,30.221-47.165c15.223,0,27.025,13.498,27.025,41.215
	c0,16.018-3.761,33.35-6.874,43.512c9.761,17.181,23.353,24.266,53.59,18.777c9.767-19.925,15.119-43.885,15.119-67.32
	c-0.022-59.758-33.5-91.608-89.326-91.608c-57.395,0-91.725,46.093-91.725,104.262c0,57.638,28.517,104.48,72.943,127.022
	c-18.688,37.381-45.75,76.865-70.527,101.673c-45.142-54.582-83.083-132.904-99.649-275.513H82.936
	C107.504,346.744,201.282,436.353,225.487,450.803z"/>
</svg>
