<?xml version="1.0" encoding="utf-8"?>
<!-- Generator: Adobe Illustrator 16.0.0, SVG Export Plug-In . SVG Version: 6.00 Build 0)  -->
<!DOCTYPE svg PUBLIC "-//W3C//DTD SVG 1.1//EN" "http://www.w3.org/Graphics/SVG/1.1/DTD/svg11.dtd">
<svg version="1.1" id="Layer_1" xmlns="http://www.w3.org/2000/svg" xmlns:xlink="http://www.w3.org/1999/xlink" x="0px" y="0px"
	 width="60px" height="60px" viewBox="-6.741 -5.576 60 60" enable-background="new -6.741 -5.576 60 60" xml:space="preserve">
<g>
	<path fill="none" d="M22.138,42.738c3.437-3.439,7.189-8.916,9.781-14.1c-6.161-3.125-10.116-9.622-10.116-17.615
		c0-8.067,4.761-14.459,12.721-14.459c7.741,0,12.384,4.417,12.387,12.704c0,3.25-0.742,6.573-2.096,9.336
		c-4.193,0.761-6.077-0.222-7.432-2.604c0.433-1.409,0.953-3.813,0.953-6.034c0-3.844-1.637-5.716-3.748-5.716
		c-2.219,0-4.191,2.479-4.191,6.541c0,8.284,3.621,13.466,11.688,13.593c1.52,0.023,3.312-0.271,5.174-0.834V-3.756h-48V4.53h9.061
		C10.616,24.307,15.878,35.169,22.138,42.738z"/>
	<path fill="none" d="M39.923,30.798c-4.529,9.564-12.915,19.201-15.637,20.748c-1.732,0.975-3.363,1.029-5.259-0.107
		C15.67,49.435,2.665,37.009-0.741,4.53v48.075h48V29.693C44.67,30.427,42.018,30.792,39.923,30.798z"/>
	<path fill="#F8ECC2" d="M19.027,51.439c1.896,1.137,3.526,1.082,5.259,0.107c2.722-1.547,11.107-11.184,15.637-20.748
		c2.096-0.006,4.748-0.371,7.336-1.105V23.55c-1.862,0.563-3.654,0.857-5.174,0.834c-8.066-0.127-11.688-5.309-11.688-13.593
		c0-4.062,1.973-6.541,4.191-6.541c2.111,0,3.748,1.872,3.748,5.716c0,2.221-0.521,4.625-0.953,6.034
		c1.354,2.383,3.238,3.365,7.432,2.604c1.354-2.763,2.096-6.086,2.096-9.336C46.908,0.981,42.265-3.436,34.524-3.436
		c-7.96,0-12.721,6.392-12.721,14.459c0,7.993,3.955,14.489,10.116,17.615c-2.592,5.184-6.345,10.66-9.781,14.1
		C15.878,35.169,10.616,24.307,8.319,4.53h-9.061C2.665,37.009,15.67,49.435,19.027,51.439z"/>
</g>
</svg>
