<?xml version="1.0" encoding="utf-8"?>
<!-- Generator: Adobe Illustrator 16.0.4, SVG Export Plug-In . SVG Version: 6.00 Build 0)  -->
<!DOCTYPE svg PUBLIC "-//W3C//DTD SVG 1.1//EN" "http://www.w3.org/Graphics/SVG/1.1/DTD/svg11.dtd">
<svg version="1.1" id="Layer_1" xmlns="http://www.w3.org/2000/svg" xmlns:xlink="http://www.w3.org/1999/xlink" x="0px" y="0px"
	 width="140.65px" height="55.721px" viewBox="0 0 140.65 55.721" enable-background="new 0 0 140.65 55.721" xml:space="preserve">
<g>
	<g>
		<g>
			<path fill="#FFFFFF" d="M59.36,17.354c3.304,0,5.576-2.49,5.576-5.686c0-3.194-2.272-5.631-5.576-5.631s-5.522,2.22-5.522,5.631
				S56.057,17.354,59.36,17.354z"/>
		</g>
	</g>
	<path fill="#FFFFFF" d="M139.326,45.518c-2.218,1.479-4.907,2.582-8.888,2.582c-3.812,0-6.932-1.61-8.421-4.956
		c10.479,0.604,18.633-3.644,18.633-11.424c0-5.74-4.456-10.167-11.439-10.167c-9.368,0-14.404,6.119-16.459,14.902
		c-1.058,4.515-3.021,10.959-6.486,10.959c-2.619,0-2.674-3.216-2.674-5.923c0-2.167-0.001-5.778-0.001-8.702
		c0-7.418-3.329-10.938-9.956-10.938c-5.862,0-8.944,4.5-10.455,8.111h-0.166l-0.098-7.259c-1.896,0-6.983,0-6.983,0l-0.218,3.56
		c-0.82,8.158-3.677,21.179-9.075,21.179c-2.814,0-3.312-4.122-3.312-7.426V22.673h-7.148c-4.091,3.366-9.563,5.205-13.354,5.146
		c-8.066-0.127-11.688-5.308-11.688-13.592c0-4.062,1.973-6.541,4.192-6.541c2.111,0,3.748,1.872,3.748,5.716
		c0,2.22-0.521,4.625-0.953,6.034c1.354,2.383,3.238,3.365,7.431,2.604c1.354-2.762,2.096-6.086,2.096-9.336
		C47.649,4.417,43.007,0,35.265,0c-7.96,0-12.72,6.392-12.72,14.459c0,7.993,3.955,14.488,10.116,17.614
		c-2.592,5.184-6.345,10.66-9.781,14.1c-6.261-7.568-11.523-18.43-13.82-38.207H0C3.406,40.445,16.411,52.87,19.768,54.874
		c1.896,1.137,3.527,1.082,5.259,0.107c2.722-1.547,11.108-11.184,15.637-20.748c4.062-0.012,10.217-1.359,13.943-4.178l0.001,9.799
		c0,10.506,3.709,15.653,9.936,15.653c4.951,0,9.542-4.803,11.479-10.76h0.164l-0.001,9.217h8.138V44.59
		c0-10.342,2.741-15.187,7.074-15.187c2.438,0,4.072,1.597,4.072,5.712c0,2.436,0,5.848,0,8.229c0,6.985,3.136,12.167,8.658,12.167
		c5.158,0,8.631-4.547,10.233-9.022c3.345,6.324,9.534,9.022,15.028,9.022c4.105,0,7.391-0.936,9.936-2.224L139.326,45.518
		L139.326,45.518z M128.303,29.163c2.383,0,3.987,0.687,4.108,2.7c0.182,3.017-2.779,5.962-11.279,6.165
		C121.494,32.993,124.371,29.163,128.303,29.163z"/>
</g>
</svg>
